<?xml version="1.0" standalone="no"?>
<!DOCTYPE svg PUBLIC "-//W3C//DTD SVG 20010904//EN"
 "http://www.w3.org/TR/2001/REC-SVG-20010904/DTD/svg10.dtd">
<svg version="1.0" xmlns="http://www.w3.org/2000/svg"
 width="260.000000pt" height="260.000000pt" viewBox="0 0 260.000000 260.000000"
 preserveAspectRatio="xMidYMid meet">
<metadata>
Created by potrace 1.11, written by Peter Selinger 2001-2013
</metadata>
<g transform="translate(0.000000,260.000000) scale(0.100000,-0.100000)"
fill="#000000" stroke="none">
<path d="M0 1300 l0 -1300 1300 0 1300 0 0 1300 0 1300 -1300 0 -1300 0 0
-1300z m900 411 c0 -195 1 -200 22 -215 18 -13 54 -16 185 -16 l163 0 0 -368
c0 -316 -2 -371 -16 -390 l-15 -22 -413 0 c-373 0 -415 2 -427 17 -21 24 -21
1152 0 1176 12 15 43 17 257 17 l244 0 0 -199z m103 149 c8 -11 29 -37 48 -58
19 -20 51 -57 71 -82 20 -25 48 -58 62 -75 68 -80 74 -75 -78 -75 l-136 0 0
155 c0 90 4 155 9 155 6 0 16 -9 24 -20z m877 -57 c136 -50 241 -182 271 -341
22 -117 -4 -317 -48 -360 -15 -15 -7 -27 129 -190 86 -102 97 -136 57 -186
-33 -42 -78 -36 -120 16 -19 23 -43 52 -54 64 -11 12 -38 43 -60 70 -66 79
-58 76 -124 43 -87 -44 -157 -56 -231 -41 -157 33 -282 155 -326 320 -20 78
-20 221 1 301 33 127 117 236 220 285 22 10 47 23 55 27 29 15 182 10 230 -8z"/>
<path d="M610 1350 l0 -40 218 2 217 3 0 35 0 35 -217 3 -218 2 0 -40z"/>
<path d="M612 1178 l3 -43 212 -3 c207 -2 212 -2 218 19 4 11 4 31 1 45 l-6
24 -216 0 -215 0 3 -42z"/>
<path d="M617 1043 c-4 -3 -7 -24 -7 -45 l0 -38 214 0 c208 0 215 1 221 21 4
11 4 31 1 45 l-6 24 -209 0 c-114 0 -211 -3 -214 -7z"/>
<path d="M1676 1636 c-53 -20 -113 -80 -145 -146 -22 -47 -26 -68 -26 -145 0
-79 4 -97 29 -144 29 -55 62 -89 125 -128 48 -31 137 -31 198 -2 49 24 120
100 130 138 3 14 11 32 17 40 5 7 10 52 10 100 0 74 -4 94 -27 139 -35 67 -52
87 -106 124 -52 37 -142 47 -205 24z m118 -82 c3 -9 6 -46 6 -84 l0 -67 38 -7
c20 -3 52 -6 70 -6 31 0 32 -2 32 -40 l0 -40 -70 0 -70 0 0 -85 c0 -82 -1 -85
-25 -91 -49 -12 -55 -2 -55 91 l0 85 -70 0 -70 0 0 39 c0 46 9 51 86 51 l54 0
0 85 0 85 34 0 c22 0 36 -6 40 -16z"/>
</g>
</svg>
